# xmcd
#
# Track frame offsets: 
#        150
#        21243
#        32415
#        40816
#        51234
#        60052
#        70883
#        80714
#        90002
#        99262
#        107265
#        118754
#        127091
#        137599
#        148379
#        156088
#        165382
#        176640
#        193281
#        205545
#
# Disc length: 2905 seconds
#
# Revision: 0
# Processed by: cddbd v1.5.2PL0 Copyright (c) Steve Scherf et al.
# Submitted via: ExactAudioCopy v1.0b3
#
DISCID=060b5714
DTITLE=Various Artist - Country and Western - Hits and Rarities CD 10
DYEAR=2011
DGENRE=Country
TTITLE0=Robbins, Marty - El Paso
TTITLE1=Snow, Hank - Music Makin' Mama From Memphis
TTITLE2=Cash, Johnny - Five Feet High And Rising
TTITLE3=Reeves, Jim - He'll Have To Go
TTITLE4=Horton, Johnny - Sal's Got A Sugar Lip
TTITLE5=Ray , Way - Idaho Red
TTITLE6=Gibson, Don - Lonesome Old House
TTITLE7=Skinner, Jimmy - Dark Hollow
TTITLE8=Miller, Roger - You Don't Want My Love
TTITLE9=Rainwater, Marvin - Boo Hoo
TTITLE10=Locklin, Hank - Send Me The Pillow That You Dream On
TTITLE11=Bare, Bobby - Sweet Singin' Sam
TTITLE12=Fell, Terry - Truck Drivion' Man
TTITLE13=Lee and Stoney Cooper, Wilma - There's A Big Wheel
TTITLE14=Parker, Fess - The Ballad Of Davy Crockett
TTITLE15=Cash, Johnny - Luther Played The Boogie
TTITLE16=Horton, Johnny - Jim Bridger
TTITLE17=Robbins, Marty - Ballad Of The Alamo
TTITLE18=Owens, Buck - Foolin' Around
TTITLE19=Gibson, Don - Just One Time
EXTD=
EXTT0=
EXTT1=
EXTT2=
EXTT3=
EXTT4=
EXTT5=
EXTT6=
EXTT7=
EXTT8=
EXTT9=
EXTT10=
EXTT11=
EXTT12=
EXTT13=
EXTT14=
EXTT15=
EXTT16=
EXTT17=
EXTT18=
EXTT19=
PLAYORDER=
